<svg width="249" height="254" viewBox="0 0 249 254" fill="none" xmlns="http://www.w3.org/2000/svg">
<path d="M236.287 243.239H14.3439C14.1848 243.239 14.0322 243.176 13.9196 243.063C13.8071 242.951 13.7439 242.798 13.7439 242.639C13.7439 242.48 13.8071 242.327 13.9196 242.215C14.0322 242.102 14.1848 242.039 14.3439 242.039H236.287C236.446 242.039 236.599 242.102 236.711 242.215C236.824 242.327 236.887 242.48 236.887 242.639C236.887 242.798 236.824 242.951 236.711 243.063C236.599 243.176 236.446 243.239 236.287 243.239Z" fill="#1D1D1B"/>
<path d="M247.6 234.487H213.562C213.403 234.487 213.25 234.424 213.138 234.311C213.025 234.199 212.962 234.046 212.962 233.887C212.962 233.728 213.025 233.575 213.138 233.463C213.25 233.35 213.403 233.287 213.562 233.287H247.6C247.759 233.287 247.912 233.35 248.024 233.463C248.137 233.575 248.2 233.728 248.2 233.887C248.2 234.046 248.137 234.199 248.024 234.311C247.912 234.424 247.759 234.487 247.6 234.487Z" fill="#1D1D1B"/>
<path d="M35.2659 253.22H1.2189C1.05977 253.22 0.907154 253.156 0.794632 253.044C0.68211 252.931 0.618896 252.779 0.618896 252.62C0.618896 252.46 0.68211 252.308 0.794632 252.195C0.907154 252.083 1.05977 252.02 1.2189 252.02H35.2659C35.425 252.02 35.5776 252.083 35.6902 252.195C35.8027 252.308 35.8659 252.46 35.8659 252.62C35.8659 252.779 35.8027 252.931 35.6902 253.044C35.5776 253.156 35.425 253.22 35.2659 253.22Z" fill="#1D1D1B"/>
<path d="M100.132 136.172C100.132 136.172 98.1218 143.693 93.0248 141.077C87.9278 138.461 77.0648 132.758 72.4028 140.177C67.7408 147.596 68.2748 149.372 62.2388 148.079C56.2028 146.786 42.1838 163.679 57.4688 171.779C82.5218 185.075 113.299 146.246 113.299 146.246L109.282 141.146L100.132 136.172Z" fill="#6C32AD"/>
<path d="M68.7159 175C64.7224 175.022 60.7858 174.053 57.2589 172.18C51.0339 168.88 48.7299 163.504 50.9409 157.444C52.9929 151.816 58.7409 146.869 62.3409 147.634C66.9279 148.618 67.3209 147.934 69.8738 143.536C70.4739 142.501 71.1519 141.328 72.0279 139.936C76.8489 132.256 87.7839 137.872 93.0279 140.569L93.2229 140.671C94.3389 141.244 95.3739 141.325 96.3009 140.914C98.6469 139.873 99.6819 136.087 99.6909 136.048L99.8409 135.496L109.579 140.8L113.872 146.251L113.65 146.53C113.572 146.626 105.796 156.376 95.0499 164.365C88.7199 169.069 82.6089 172.255 76.8849 173.836C74.227 174.591 71.4789 174.983 68.7159 175ZM61.5579 148.456C58.5939 148.456 53.7039 152.494 51.7869 157.756C50.5869 161.056 49.7619 167.185 57.6789 171.388C70.4139 178.144 84.7359 170.905 94.5099 163.642C104.155 156.475 111.382 147.883 112.723 146.242L109 141.508L100.414 136.828C100.009 138.028 98.8599 140.779 96.6879 141.742C95.4879 142.27 94.2038 142.18 92.8329 141.478L92.6379 141.376C87.6219 138.799 77.1819 133.438 72.7989 140.422C71.9319 141.802 71.2569 142.969 70.6599 143.998C68.0799 148.45 67.3869 149.644 62.1609 148.525C61.9628 148.482 61.7605 148.462 61.5579 148.465V148.456Z" fill="black"/>
<path d="M114.289 120.61C119.77 120.61 124.213 116.167 124.213 110.686C124.213 105.205 119.77 100.762 114.289 100.762C108.808 100.762 104.365 105.205 104.365 110.686C104.365 116.167 108.808 120.61 114.289 120.61Z" fill="#6C32AD"/>
<path d="M114.289 121.063C111.633 121.065 109.077 120.05 107.147 118.226C105.217 116.402 104.058 113.908 103.91 111.257C103.762 108.605 104.635 105.997 106.35 103.97C108.065 101.942 110.492 100.648 113.131 100.355C115.771 100.061 118.423 100.79 120.541 102.391C122.66 103.992 124.085 106.344 124.523 108.963C124.962 111.583 124.38 114.27 122.898 116.474C121.415 118.678 119.145 120.23 116.554 120.811C115.81 120.978 115.051 121.062 114.289 121.063ZM114.307 101.209C113.606 101.21 112.906 101.288 112.222 101.44C109.872 101.97 107.814 103.38 106.471 105.38C105.128 107.379 104.601 109.818 105 112.193C105.398 114.569 106.691 116.702 108.613 118.155C110.534 119.607 112.939 120.269 115.334 120.004C117.728 119.738 119.93 118.566 121.487 116.729C123.045 114.891 123.839 112.526 123.708 110.121C123.576 107.715 122.529 105.452 120.781 103.794C119.032 102.137 116.716 101.212 114.307 101.209Z" fill="#1D1E1B"/>
<path d="M124.861 112.48C119.323 106.324 108.763 110.284 106.711 114.001C101.611 123.229 94.0659 121.105 94.7109 129.625C95.0529 133.9 99.0999 134.659 99.0999 142.624C99.0999 146.734 107.095 151.237 113.08 149.896C119.065 148.555 139.546 144.196 140.212 139.435C140.878 134.674 145.858 125.806 138.484 118.675C131.044 111.466 127.261 115.15 124.861 112.48Z" fill="#6C32AD"/>
<path d="M110.815 150.59C107.272 150.59 103.684 149.036 101.515 147.29C99.6819 145.829 98.6709 144.17 98.6649 142.616C98.6499 138.032 97.2819 135.926 96.0789 134.066C95.2269 132.752 94.4199 131.51 94.2789 129.65C93.8949 124.664 96.2049 123.11 99.1329 121.139C101.461 119.57 104.104 117.791 106.333 113.771C107.611 111.455 111.577 109.367 115.555 108.911C119.533 108.455 122.899 109.631 125.2 112.181C125.995 113.063 127 113.15 128.365 113.27C130.765 113.483 134.065 113.771 138.814 118.352C144.814 124.166 142.906 131.036 141.514 136.052C141.168 137.184 140.891 138.336 140.686 139.502C140.086 143.828 126.124 147.47 114.028 150.158L113.209 150.341C112.423 150.512 111.62 150.595 110.815 150.59ZM117.169 109.727C116.66 109.727 116.151 109.757 115.645 109.817C111.562 110.285 108.097 112.421 107.104 114.218C104.779 118.418 101.923 120.35 99.6279 121.898C96.7389 123.845 94.8279 125.129 95.1699 129.59C95.2959 131.222 96.0069 132.32 96.8289 133.589C98.0289 135.455 99.5439 137.789 99.5619 142.625C99.5619 143.9 100.462 145.31 102.073 146.6C104.572 148.595 109.057 150.341 112.993 149.459L113.815 149.276C130.648 145.535 139.384 142.202 139.777 139.376C139.988 138.171 140.273 136.979 140.629 135.809C141.973 131.009 143.809 124.445 138.181 119.009C133.681 114.647 130.555 114.374 128.281 114.176C126.82 114.047 125.56 113.936 124.528 112.793C122.731 110.801 120.157 109.727 117.169 109.727Z" fill="#1D1E1B"/>
<path d="M173.389 152.116C191.179 143.221 182.59 97.8764 180.7 91.4804C178.81 85.0844 174.337 85.6904 174.337 85.6904L173.83 80.5514L157.375 79.9004L157 83.4224C157 83.4224 150.748 85.7204 150.781 92.0804C150.814 98.4404 150.643 100.504 150.943 104.953C150.943 104.953 149.479 130.453 144.898 137.728C140.317 145.003 132.016 148.567 132.016 148.567" fill="#FFAD00"/>
<path d="M173.389 152.567C173.288 152.566 173.189 152.532 173.11 152.469C173.031 152.406 172.975 152.318 172.952 152.22C172.929 152.122 172.939 152.018 172.982 151.926C173.025 151.835 173.097 151.76 173.188 151.715C182.356 147.131 184.114 132.41 183.988 120.866C183.826 107.57 181.216 94.7657 180.283 91.6067C178.522 85.6517 174.451 86.1317 174.409 86.1377C174.349 86.1452 174.288 86.1409 174.23 86.1249C174.172 86.1089 174.117 86.0817 174.07 86.0447C174.023 86.0083 173.984 85.9631 173.956 85.9116C173.927 85.8601 173.908 85.8033 173.902 85.7447L173.434 80.9957L157.792 80.3747L157.471 83.4767C157.461 83.5614 157.428 83.6418 157.375 83.7086C157.322 83.7754 157.251 83.826 157.171 83.8547C156.928 83.9447 151.219 86.1257 151.249 92.0867C151.249 94.1507 151.249 95.7437 151.249 97.1477C151.231 100.034 151.216 101.948 151.42 104.948C151.423 104.967 151.423 104.986 151.42 105.005C151.36 106.049 149.896 130.697 145.306 138.005C140.716 145.313 132.565 148.871 132.22 149.018C132.165 149.041 132.107 149.053 132.048 149.054C131.989 149.055 131.93 149.044 131.875 149.022C131.82 149 131.77 148.967 131.728 148.926C131.686 148.884 131.652 148.835 131.629 148.781C131.606 148.726 131.593 148.668 131.593 148.609C131.592 148.55 131.603 148.491 131.625 148.436C131.647 148.381 131.679 148.331 131.721 148.289C131.762 148.247 131.811 148.213 131.866 148.19C131.947 148.154 140.095 144.59 144.544 137.525C148.945 130.529 150.463 105.965 150.52 104.993C150.316 101.993 150.331 100.067 150.349 97.1717C150.349 95.7677 150.37 94.1717 150.349 92.1197C150.319 86.2907 155.371 83.6897 156.595 83.1467L156.934 79.8917C156.945 79.7776 157 79.6723 157.086 79.597C157.172 79.5217 157.284 79.4823 157.399 79.4867L173.854 80.1377C173.955 80.1417 174.052 80.1797 174.13 80.2455C174.207 80.3113 174.26 80.4012 174.28 80.5007L174.745 85.2227C176.011 85.2647 179.521 85.8857 181.132 91.3427C183.07 97.9007 191.746 143.441 173.59 152.519C173.528 152.551 173.459 152.567 173.389 152.567Z" fill="#1D1D1B"/>
<path d="M174.1 85.8062C174.35 85.7804 174.602 85.7804 174.853 85.8062C171.397 87.8462 163.153 91.4132 157.123 83.7062C157.267 83.6432 157.354 83.6102 157.354 83.6102L157.711 80.1992L173.611 80.8292L174.1 85.8062Z" fill="#E89D00"/>
<path d="M122.32 130.055C117.574 131.999 110.527 131.036 109.72 133.004C108.913 134.972 110.191 137.18 112.969 137.279C115.747 137.378 118.39 136.82 123.745 135.41C129.1 134 134.245 132.218 133.096 129.428C131.947 126.638 129.298 127.196 122.32 130.055Z" fill="#FFB49F"/>
<path d="M116.281 116.482C116.077 124.582 109.141 129.82 105.013 131.149C104.614 133.693 105.79 136.744 106.405 139.492C108.664 149.581 115.798 155.647 125.335 152.821C134.635 150.061 138.397 143.542 135.799 132.451C135.199 129.835 134.707 127.207 133.357 125.143C125.32 126.904 116.281 116.482 116.281 116.482Z" fill="#FFCDB2"/>
<path d="M120.79 153.96C118.437 153.974 116.125 153.352 114.097 152.16C110.152 149.841 107.263 145.374 105.967 139.575C105.814 138.897 105.631 138.21 105.436 137.475C104.857 135.306 104.254 133.059 104.569 131.058L104.611 130.785L104.875 130.701C109.312 129.27 115.645 123.906 115.831 116.448L115.858 115.287L116.62 116.199C116.707 116.301 125.578 126.399 133.261 124.716L133.561 124.65L133.732 124.911C134.965 126.798 135.502 129.15 136.021 131.427C136.09 131.727 136.162 132.051 136.234 132.363C137.539 137.925 137.266 142.506 135.427 145.983C133.627 149.388 130.273 151.839 125.461 153.264C123.945 153.72 122.372 153.954 120.79 153.96ZM105.421 131.499C105.229 133.254 105.775 135.297 106.306 137.277C106.495 137.979 106.69 138.705 106.846 139.404C108.088 144.954 110.824 149.217 114.553 151.404C117.625 153.204 121.309 153.552 125.206 152.397C134.521 149.634 137.842 143.148 135.361 132.561L135.145 131.622C134.647 129.432 134.173 127.359 133.141 125.652C132.582 125.753 132.016 125.803 131.449 125.802C125.104 125.802 118.777 119.784 116.665 117.573C115.933 125.124 109.6 130.02 105.421 131.499Z" fill="#1D1D1B"/>
<path d="M121.45 130.876C115.813 133.252 107.398 132.187 106.45 134.542C105.502 136.897 107.05 139.519 110.377 139.606C113.704 139.693 116.836 139.006 123.208 137.248C129.58 135.49 135.691 133.321 134.293 130.006C132.895 126.691 129.742 127.387 121.45 130.876Z" fill="#FFB49F"/>
<path d="M110.419 131.533C110.31 131.534 110.205 131.495 110.123 131.424C110.04 131.354 109.986 131.255 109.971 131.148C109.955 131.04 109.979 130.931 110.037 130.84C110.096 130.748 110.186 130.681 110.29 130.651C110.32 130.651 113.257 129.751 113.44 127.951C113.446 127.892 113.464 127.834 113.492 127.782C113.52 127.73 113.558 127.684 113.605 127.646C113.651 127.609 113.704 127.581 113.761 127.564C113.818 127.547 113.877 127.541 113.936 127.547C113.995 127.553 114.053 127.571 114.105 127.599C114.157 127.628 114.203 127.666 114.241 127.712C114.278 127.758 114.306 127.811 114.323 127.868C114.34 127.925 114.346 127.985 114.34 128.044C114.097 130.444 110.695 131.473 110.551 131.515C110.508 131.529 110.464 131.535 110.419 131.533Z" fill="black"/>
<path d="M126.313 127.812C124.438 127.812 122.947 126.162 122.881 126.09C122.801 126.001 122.76 125.884 122.767 125.765C122.774 125.646 122.828 125.534 122.917 125.454C123.006 125.375 123.123 125.334 123.242 125.341C123.362 125.347 123.473 125.401 123.553 125.49C123.553 125.508 124.969 127.056 126.526 126.903C126.645 126.892 126.764 126.928 126.857 127.004C126.949 127.081 127.008 127.19 127.019 127.31C127.031 127.429 126.994 127.548 126.918 127.641C126.842 127.733 126.732 127.792 126.613 127.803C126.511 127.809 126.4 127.812 126.313 127.812Z" fill="black"/>
<path d="M112.819 134.678C113.442 134.678 113.947 134.173 113.947 133.55C113.947 132.927 113.442 132.422 112.819 132.422C112.196 132.422 111.691 132.927 111.691 133.55C111.691 134.173 112.196 134.678 112.819 134.678Z" fill="black"/>
<path d="M127.126 131.477C127.749 131.477 128.254 130.972 128.254 130.349C128.254 129.726 127.749 129.221 127.126 129.221C126.503 129.221 125.998 129.726 125.998 130.349C125.998 130.972 126.503 131.477 127.126 131.477Z" fill="black"/>
<path d="M121.636 140.346C121.534 140.346 121.435 140.311 121.355 140.247C121.275 140.183 121.218 140.095 121.195 139.995L119.422 132.069C119.396 131.953 119.417 131.831 119.482 131.73C119.546 131.629 119.647 131.558 119.764 131.532C119.88 131.506 120.002 131.528 120.103 131.592C120.204 131.656 120.275 131.758 120.301 131.874L122.074 139.797C122.087 139.855 122.088 139.915 122.078 139.973C122.067 140.031 122.046 140.087 122.014 140.137C121.982 140.186 121.941 140.23 121.893 140.263C121.844 140.297 121.79 140.321 121.732 140.334C121.7 140.342 121.668 140.346 121.636 140.346Z" fill="black"/>
<path d="M119.284 146.884C119.181 146.884 119.081 146.848 119.002 146.782C118.956 146.745 118.917 146.699 118.889 146.647C118.86 146.595 118.843 146.539 118.836 146.48C118.83 146.421 118.835 146.361 118.852 146.305C118.868 146.248 118.896 146.195 118.933 146.149C118.981 146.092 120.082 144.754 121.531 144.754H121.564C122.386 144.754 123.133 145.201 123.775 146.041C123.848 146.136 123.88 146.255 123.864 146.374C123.849 146.492 123.787 146.6 123.692 146.672C123.598 146.745 123.478 146.777 123.36 146.762C123.241 146.746 123.134 146.685 123.061 146.59C122.593 145.99 122.086 145.663 121.561 145.654C120.547 145.654 119.653 146.707 119.647 146.716C119.603 146.77 119.548 146.813 119.485 146.842C119.422 146.872 119.353 146.886 119.284 146.884Z" fill="black"/>
<path d="M158.578 79.3003C158.578 79.3003 139.774 65.5513 152.701 61.0573L153.442 49.4623C153.442 49.4623 158.998 45.8263 161.407 54.9613C161.407 54.9613 165.736 54.9043 168.196 58.0573C168.196 58.0573 172.87 56.7943 174.496 63.4573C176.266 70.6573 172.753 80.2033 172.753 80.2033L158.578 79.3003Z" fill="#FFCDB2"/>
<path d="M173.065 80.6651L158.416 79.7411L158.311 79.6631C157.843 79.3211 146.869 71.2211 147.766 65.2151C148.066 63.2411 149.566 61.7321 152.266 60.7331L153.001 49.2101L153.19 49.0871C153.277 49.0301 155.29 47.7281 157.552 48.5921C159.433 49.3121 160.852 51.3071 161.752 54.5201C162.844 54.5771 166.186 54.9671 168.373 57.5621C169.515 57.3996 170.678 57.6291 171.673 58.2131C173.224 59.1281 174.319 60.8531 174.931 63.3431C176.71 70.6001 173.317 79.9571 173.17 80.3501L173.065 80.6651ZM158.737 78.8651L172.444 79.7321C173.02 78.0311 175.603 69.8321 174.064 63.5621C173.518 61.3271 172.564 59.7941 171.241 59.0051C170.359 58.4812 169.316 58.3007 168.31 58.4981L168.01 58.5731L167.824 58.3391C165.526 55.3961 161.44 55.4171 161.398 55.4171H161.047L160.957 55.0781C160.138 51.9701 158.881 50.0711 157.222 49.4351C155.749 48.8681 154.354 49.4741 153.862 49.7351L153.115 61.3871L152.833 61.4861C150.304 62.3651 148.894 63.6641 148.633 65.3501C147.883 70.5311 157.618 78.0161 158.737 78.8591V78.8651Z" fill="#1D1D1B"/>
<path d="M174.961 64.7716C175.279 68.1016 171.961 71.8666 169.561 69.6436C167.572 67.7986 167.695 66.1066 167.695 66.1066C167.695 66.1066 165.532 71.3056 161.695 67.9666C157.858 64.6276 161.17 55.2676 161.17 55.2676" fill="#FFCDB2"/>
<path d="M171.142 70.7628C170.434 70.7526 169.757 70.47 169.252 69.9738C168.462 69.2764 167.855 68.397 167.482 67.4118C166.948 68.2068 166.078 69.1758 164.875 69.4548C163.747 69.7188 162.577 69.3348 161.398 68.3088C157.375 64.8078 160.603 55.5108 160.744 55.1088C160.764 55.0531 160.794 55.0018 160.834 54.9578C160.873 54.9138 160.921 54.8781 160.974 54.8526C161.028 54.8271 161.085 54.8124 161.144 54.8092C161.204 54.8061 161.263 54.8146 161.318 54.8343C161.374 54.854 161.425 54.8845 161.469 54.924C161.513 54.9636 161.549 55.0114 161.575 55.0647C161.6 55.1181 161.615 55.1759 161.618 55.235C161.621 55.294 161.613 55.3531 161.593 55.4088C161.56 55.4988 158.425 64.5228 161.989 67.6188C162.937 68.4438 163.837 68.7678 164.668 68.5728C166.312 68.1888 167.266 65.9478 167.275 65.9268C167.316 65.8286 167.391 65.7481 167.486 65.6998C167.581 65.6515 167.69 65.6384 167.793 65.6629C167.897 65.6873 167.989 65.7478 168.052 65.8335C168.115 65.9192 168.146 66.0245 168.139 66.1308C168.139 66.1878 168.079 67.6488 169.864 69.3048C170.148 69.5889 170.518 69.772 170.916 69.8262C171.314 69.8804 171.719 69.8026 172.069 69.6048C173.407 68.9418 174.709 66.8508 174.511 64.8048C174.505 64.7457 174.511 64.6861 174.528 64.6293C174.546 64.5725 174.574 64.5197 174.612 64.4739C174.65 64.4281 174.696 64.3901 174.748 64.3622C174.801 64.3343 174.858 64.317 174.917 64.3113C174.976 64.3056 175.036 64.3116 175.093 64.3289C175.15 64.3463 175.202 64.3746 175.248 64.4124C175.294 64.4501 175.332 64.4965 175.36 64.5489C175.388 64.6013 175.405 64.6587 175.411 64.7178C175.627 66.9558 174.307 69.5178 172.471 70.4178C172.061 70.6349 171.606 70.7531 171.142 70.7628Z" fill="#1D1D1B"/>
<path d="M167.446 67.0535H167.401C167.342 67.0479 167.285 67.0307 167.232 67.0029C167.18 66.9751 167.134 66.9373 167.096 66.8916C167.059 66.8459 167.03 66.7932 167.013 66.7366C166.996 66.6799 166.99 66.6205 166.996 66.5615L167.824 58.0355C167.83 57.9765 167.847 57.9191 167.875 57.8666C167.903 57.8142 167.941 57.7678 167.986 57.7301C168.032 57.6923 168.085 57.664 168.142 57.6467C168.199 57.6293 168.258 57.6233 168.317 57.6291C168.376 57.6348 168.434 57.6521 168.486 57.6799C168.539 57.7078 168.585 57.7458 168.623 57.7916C168.661 57.8374 168.689 57.8902 168.706 57.947C168.724 58.0038 168.73 58.0635 168.724 58.1225L167.896 66.6485C167.884 66.7597 167.831 66.8625 167.748 66.9373C167.665 67.012 167.558 67.0534 167.446 67.0535Z" fill="#1D1D1B"/>
<path d="M152.713 61.048C152.713 61.048 159.046 57.577 161.44 60.895C163.834 64.213 154 69.7 154 69.7" fill="#FFCDB2"/>
<path d="M154 70.1558C153.9 70.1558 153.803 70.1227 153.725 70.0617C153.646 70.0008 153.59 69.9154 153.565 69.819C153.54 69.7225 153.547 69.6205 153.586 69.5289C153.625 69.4373 153.694 69.3613 153.781 69.3128C153.85 69.2738 160.654 65.4398 161.314 62.4548C161.373 62.2344 161.382 62.0035 161.339 61.7792C161.297 61.5549 161.206 61.343 161.071 61.1588C158.938 58.2008 152.971 61.4108 152.926 61.4408C152.874 61.4715 152.816 61.4914 152.757 61.4994C152.697 61.5074 152.636 61.5032 152.578 61.4872C152.52 61.4713 152.465 61.4437 152.418 61.4063C152.371 61.3689 152.331 61.3224 152.302 61.2694C152.273 61.2165 152.255 61.1583 152.249 61.0983C152.243 61.0383 152.249 60.9777 152.267 60.92C152.285 60.8624 152.314 60.809 152.353 60.7629C152.392 60.7168 152.44 60.679 152.494 60.6518C152.767 60.5018 159.205 57.0338 161.794 60.6308C162.003 60.9182 162.146 61.248 162.214 61.5969C162.281 61.9458 162.271 62.3053 162.184 62.6498C161.437 66.0278 154.504 69.9338 154.21 70.0988C154.145 70.1337 154.073 70.1532 154 70.1558Z" fill="#1D1D1B"/>
<path d="M174.406 144.007C175.266 144.007 175.963 143.309 175.963 142.45C175.963 141.59 175.266 140.893 174.406 140.893C173.546 140.893 172.849 141.59 172.849 142.45C172.849 143.309 173.546 144.007 174.406 144.007Z" fill="#FFC140"/>
<path d="M153.385 144.553C154.245 144.553 154.942 143.856 154.942 142.996C154.942 142.137 154.245 141.439 153.385 141.439C152.525 141.439 151.828 142.137 151.828 142.996C151.828 143.856 152.525 144.553 153.385 144.553Z" fill="#FFC140"/>
<path d="M167.581 123.257C168.441 123.257 169.138 122.559 169.138 121.7C169.138 120.84 168.441 120.143 167.581 120.143C166.721 120.143 166.024 120.84 166.024 121.7C166.024 122.559 166.721 123.257 167.581 123.257Z" fill="#FFC140"/>
<path d="M160.483 109.333C161.343 109.333 162.04 108.636 162.04 107.776C162.04 106.916 161.343 106.219 160.483 106.219C159.623 106.219 158.926 106.916 158.926 107.776C158.926 108.636 159.623 109.333 160.483 109.333Z" fill="#FFC140"/>
<path d="M176.047 95.9538C176.907 95.9538 177.604 95.2568 177.604 94.3968C177.604 93.5369 176.907 92.8398 176.047 92.8398C175.187 92.8398 174.49 93.5369 174.49 94.3968C174.49 95.2568 175.187 95.9538 176.047 95.9538Z" fill="#FFC140"/>
<path d="M191.8 134.2C191.74 134.2 191.68 134.191 191.623 134.173C191.471 134.126 191.344 134.021 191.27 133.88C191.195 133.74 191.18 133.575 191.227 133.423C196.474 116.5 187.489 102.568 187.399 102.43C187.354 102.365 187.323 102.291 187.307 102.213C187.291 102.135 187.29 102.054 187.306 101.976C187.321 101.898 187.352 101.824 187.396 101.758C187.441 101.692 187.498 101.635 187.564 101.591C187.631 101.547 187.705 101.517 187.784 101.502C187.862 101.488 187.942 101.489 188.02 101.506C188.098 101.522 188.172 101.554 188.237 101.6C188.303 101.645 188.358 101.703 188.401 101.77C188.494 101.914 197.794 116.309 192.373 133.778C192.335 133.9 192.259 134.007 192.156 134.083C192.053 134.159 191.928 134.2 191.8 134.2Z" fill="black"/>
<path d="M179.2 135.701C179.081 135.701 178.964 135.677 178.855 135.632C178.635 135.54 178.46 135.365 178.368 135.144C178.277 134.924 178.277 134.676 178.369 134.456C181.828 126.098 178.348 105.461 178.312 105.254C178.272 105.018 178.328 104.777 178.466 104.582C178.604 104.387 178.814 104.255 179.05 104.216C179.285 104.176 179.527 104.231 179.722 104.37C179.916 104.508 180.048 104.718 180.088 104.954C180.235 105.824 183.688 126.314 180.031 135.152C179.962 135.315 179.846 135.454 179.698 135.552C179.55 135.649 179.377 135.701 179.2 135.701Z" fill="white"/>
<path d="M106.9 109.751C106.849 109.75 106.799 109.745 106.75 109.736C106.555 109.696 106.385 109.581 106.275 109.416C106.166 109.25 106.126 109.048 106.165 108.854C106.204 108.653 107.215 103.892 112.687 102.281C112.781 102.253 112.88 102.244 112.978 102.254C113.077 102.264 113.172 102.294 113.258 102.341C113.345 102.388 113.421 102.452 113.483 102.529C113.545 102.605 113.592 102.693 113.62 102.788C113.648 102.882 113.657 102.982 113.646 103.08C113.636 103.178 113.607 103.273 113.559 103.359C113.512 103.446 113.449 103.523 113.372 103.585C113.295 103.647 113.207 103.693 113.113 103.721C108.532 105.068 107.668 108.986 107.635 109.151C107.599 109.32 107.507 109.471 107.373 109.581C107.239 109.69 107.072 109.75 106.9 109.751Z" fill="white"/>
<path d="M203.158 187.649C202.576 187.649 201.979 187.631 201.358 187.601C201.279 187.597 201.202 187.577 201.131 187.543C201.06 187.509 200.996 187.461 200.943 187.402C200.89 187.343 200.85 187.275 200.824 187.2C200.798 187.126 200.787 187.047 200.791 186.968C200.795 186.889 200.815 186.812 200.849 186.741C200.883 186.669 200.931 186.606 200.99 186.553C201.049 186.5 201.117 186.46 201.192 186.434C201.266 186.408 201.345 186.396 201.424 186.401C207.928 186.743 212.578 185.201 215.242 181.811C219.805 176 217.042 166.568 217.015 166.475C216.992 166.399 216.984 166.32 216.992 166.241C217 166.163 217.023 166.086 217.061 166.017C217.098 165.947 217.149 165.885 217.21 165.835C217.271 165.785 217.341 165.748 217.417 165.725C217.493 165.702 217.572 165.694 217.651 165.702C217.729 165.71 217.806 165.733 217.875 165.771C217.945 165.808 218.007 165.859 218.057 165.92C218.107 165.981 218.144 166.051 218.167 166.127C218.29 166.538 221.134 176.243 216.187 182.549C213.538 185.936 209.158 187.649 203.158 187.649Z" fill="#1D1D1B"/>
<path d="M117.274 153.508C117.239 153.526 117.202 153.538 117.163 153.544C112.762 154.225 108.01 151.675 107.809 151.567C107.725 151.518 107.664 151.439 107.638 151.346C107.611 151.253 107.623 151.153 107.669 151.068C107.715 150.983 107.792 150.919 107.884 150.89C107.977 150.861 108.076 150.869 108.163 150.913C108.211 150.94 112.9 153.454 117.049 152.812C117.145 152.796 117.243 152.819 117.322 152.875C117.401 152.931 117.455 153.016 117.472 153.112C117.485 153.19 117.473 153.271 117.438 153.342C117.402 153.413 117.345 153.471 117.274 153.508Z" fill="black"/>
<path d="M102.625 166.213C102.546 166.255 102.454 166.266 102.367 166.243C102.319 166.232 102.275 166.211 102.235 166.182C102.196 166.153 102.163 166.117 102.137 166.075C102.112 166.033 102.095 165.987 102.088 165.939C102.08 165.89 102.082 165.841 102.094 165.793C103.483 160.207 102.652 150.16 102.646 150.058C102.642 150.01 102.648 149.961 102.663 149.915C102.677 149.869 102.701 149.826 102.733 149.789C102.764 149.752 102.803 149.721 102.846 149.699C102.889 149.677 102.937 149.663 102.985 149.659C103.033 149.655 103.082 149.661 103.128 149.676C103.175 149.691 103.218 149.715 103.255 149.746C103.292 149.778 103.322 149.816 103.344 149.859C103.367 149.903 103.38 149.95 103.384 149.998C103.42 150.412 104.233 160.267 102.817 165.973C102.804 166.025 102.78 166.073 102.747 166.114C102.714 166.156 102.672 166.19 102.625 166.213Z" fill="white"/>
<path d="M202.615 149.199H45.7C43.0744 149.199 40.5563 150.242 38.6997 152.099C36.8431 153.955 35.8 156.474 35.8 159.099V172.629C35.808 175.25 36.8545 177.76 38.7103 179.61C40.566 181.46 43.0796 182.499 45.7 182.499H55.186L66.7001 242.499H183.1L191.386 182.499H202.615C205.241 182.499 207.759 181.456 209.615 179.6C211.472 177.743 212.515 175.225 212.515 172.599V159.099C212.515 156.474 211.472 153.955 209.615 152.099C207.759 150.242 205.241 149.199 202.615 149.199Z" fill="#D9CFFF"/>
<path d="M183.493 242.95H66.328L54.799 182.95H45.7C42.9597 182.948 40.3323 181.858 38.3947 179.92C36.457 177.983 35.3674 175.355 35.365 172.615V159.1C35.3634 156.357 36.4513 153.726 38.3894 151.785C40.3275 149.844 42.9571 148.752 45.7 148.75H202.63C205.37 148.756 207.996 149.85 209.931 151.79C211.866 153.731 212.952 156.36 212.95 159.1V172.63C212.948 175.37 211.858 177.998 209.92 179.935C207.983 181.873 205.355 182.963 202.615 182.965H191.776L183.493 242.95ZM67.072 242.05H182.707L190.993 182.05H202.615C205.116 182.047 207.514 181.052 209.283 179.283C211.052 177.514 212.047 175.116 212.05 172.615V159.1C212.047 156.599 211.052 154.201 209.283 152.432C207.514 150.663 205.116 149.668 202.615 149.665H45.7C43.196 149.664 40.7942 150.658 39.0223 152.427C37.2503 154.196 36.2532 156.596 36.25 159.1V172.63C36.2571 175.131 37.256 177.528 39.0275 179.294C40.7991 181.06 43.1986 182.051 45.7 182.05H55.558L67.072 242.05Z" fill="#1D1E1B"/>
<path d="M105.7 229.9H105.676C91.0215 229.32 76.5474 226.456 62.776 221.413C51.8413 217.38 41.4546 211.994 31.858 205.381C15.466 194.095 6.90395 182.974 6.81995 182.863C6.76808 182.801 6.72936 182.729 6.70612 182.651C6.68288 182.573 6.6756 182.492 6.68472 182.411C6.69384 182.331 6.71917 182.253 6.75919 182.183C6.7992 182.112 6.85308 182.051 6.91755 182.001C6.98203 181.952 7.05578 181.917 7.13435 181.897C7.21292 181.877 7.29468 181.874 7.3747 181.886C7.45473 181.899 7.53137 181.928 7.59998 181.971C7.6686 182.014 7.72778 182.07 7.77395 182.137C7.85795 182.245 16.33 193.237 32.578 204.421C54.1833 219.248 79.5406 227.665 105.724 228.7C105.883 228.703 106.034 228.769 106.145 228.884C106.255 228.999 106.315 229.153 106.312 229.312C106.309 229.471 106.243 229.622 106.128 229.733C106.013 229.843 105.859 229.903 105.7 229.9Z" fill="black"/>
<path d="M68.971 233.583C56.182 233.583 47.338 230.97 42.01 228.648C35.596 225.858 32.782 222.948 32.665 222.813C32.5552 222.698 32.4958 222.544 32.4997 222.384C32.5036 222.225 32.5707 222.074 32.686 221.964C32.8014 221.855 32.9557 221.795 33.1149 221.799C33.2741 221.803 33.4252 221.87 33.535 221.985C33.586 222.036 36.373 224.901 42.568 227.583C48.319 230.073 58.261 232.914 72.976 232.299C73.0548 232.296 73.1335 232.308 73.2075 232.336C73.2816 232.363 73.3495 232.404 73.4075 232.458C73.4654 232.511 73.5123 232.576 73.5453 232.647C73.5783 232.719 73.5969 232.797 73.6 232.875C73.6032 232.954 73.5909 233.033 73.5637 233.107C73.5365 233.181 73.4949 233.249 73.4414 233.307C73.3879 233.365 73.3235 233.412 73.2519 233.445C73.1803 233.478 73.1028 233.496 73.024 233.499C71.632 233.557 70.281 233.585 68.971 233.583Z" fill="black"/>
<path d="M190.6 183.1H56.4999C56.3408 183.1 56.1882 183.037 56.0756 182.925C55.9631 182.812 55.8999 182.66 55.8999 182.5C55.8999 182.341 55.9631 182.189 56.0756 182.076C56.1882 181.964 56.3408 181.9 56.4999 181.9H190.6C190.759 181.9 190.912 181.964 191.024 182.076C191.137 182.189 191.2 182.341 191.2 182.5C191.2 182.66 191.137 182.812 191.024 182.925C190.912 183.037 190.759 183.1 190.6 183.1Z" fill="black"/>
<path d="M92.56 243.099C92.4102 243.1 92.2657 243.045 92.1547 242.944C92.0436 242.844 91.9742 242.705 91.96 242.556L86.2 182.556C86.1849 182.397 86.2336 182.238 86.3354 182.115C86.4372 181.992 86.5838 181.914 86.743 181.899C86.9021 181.884 87.0607 181.933 87.1839 182.035C87.3071 182.136 87.3849 182.283 87.4 182.442L93.178 242.442C93.1858 242.522 93.1774 242.603 93.1534 242.68C93.1294 242.756 93.0902 242.828 93.0381 242.889C92.9861 242.95 92.9222 243 92.8504 243.036C92.7786 243.073 92.7002 243.094 92.62 243.099H92.56Z" fill="black"/>
<path d="M155.05 243.1H155.002C154.844 243.087 154.697 243.012 154.594 242.891C154.491 242.77 154.441 242.613 154.453 242.455L159.253 182.455C159.266 182.297 159.341 182.15 159.462 182.047C159.583 181.944 159.74 181.894 159.898 181.906C159.977 181.912 160.053 181.934 160.124 181.969C160.194 182.005 160.256 182.054 160.308 182.114C160.359 182.174 160.398 182.244 160.422 182.319C160.447 182.393 160.456 182.473 160.45 182.551L155.65 242.551C155.637 242.701 155.568 242.841 155.457 242.943C155.346 243.045 155.201 243.101 155.05 243.1Z" fill="black"/>
<path d="M124.9 243.1C124.741 243.1 124.588 243.037 124.476 242.925C124.363 242.812 124.3 242.66 124.3 242.5L123.622 182.5C123.622 182.341 123.685 182.189 123.798 182.076C123.91 181.964 124.063 181.9 124.222 181.9C124.381 181.9 124.534 181.964 124.646 182.076C124.759 182.189 124.822 182.341 124.822 182.5L125.5 242.5C125.5 242.66 125.437 242.812 125.324 242.925C125.212 243.037 125.059 243.1 124.9 243.1Z" fill="black"/>
<path d="M122.986 217.753C113.314 217.753 104.719 217.345 97.5098 216.79C74.8448 215.053 60.6308 211.549 60.4898 211.513C60.4134 211.493 60.3416 211.459 60.2785 211.411C60.2155 211.364 60.1624 211.305 60.1222 211.237C60.0412 211.099 60.0181 210.935 60.0578 210.781C60.0976 210.627 60.1971 210.495 60.3344 210.413C60.4717 210.332 60.6355 210.309 60.7898 210.349C60.9278 210.385 75.0698 213.868 97.6418 215.596C118.471 217.192 150.94 217.576 187.342 210.343C187.495 210.319 187.651 210.355 187.779 210.444C187.906 210.532 187.994 210.667 188.024 210.819C188.054 210.971 188.024 211.129 187.941 211.259C187.857 211.39 187.727 211.483 187.576 211.519C166.3 215.693 144.667 217.781 122.986 217.753Z" fill="black"/>
<path d="M117.4 154.15H48.7C48.501 154.15 48.3103 154.071 48.1696 153.931C48.029 153.79 47.95 153.599 47.95 153.4C47.95 153.201 48.029 153.011 48.1696 152.87C48.3103 152.729 48.501 152.65 48.7 152.65H117.4C117.599 152.65 117.79 152.729 117.93 152.87C118.071 153.011 118.15 153.201 118.15 153.4C118.15 153.599 118.071 153.79 117.93 153.931C117.79 154.071 117.599 154.15 117.4 154.15Z" fill="white"/>
<path d="M179.35 237.399H179.272C179.174 237.389 179.079 237.36 178.992 237.313C178.905 237.266 178.828 237.202 178.766 237.126C178.704 237.049 178.658 236.961 178.63 236.866C178.602 236.772 178.593 236.673 178.603 236.574L183.703 187.074C183.724 186.876 183.823 186.693 183.978 186.567C184.133 186.441 184.332 186.382 184.531 186.402C184.73 186.423 184.912 186.522 185.039 186.677C185.165 186.833 185.224 187.032 185.203 187.23L180.103 236.73C180.082 236.915 179.994 237.086 179.855 237.209C179.716 237.333 179.536 237.401 179.35 237.399Z" fill="white"/>
<path d="M52.1499 169.45C53.9724 169.45 55.4499 167.972 55.4499 166.15C55.4499 164.327 53.9724 162.85 52.1499 162.85C50.3273 162.85 48.8499 164.327 48.8499 166.15C48.8499 167.972 50.3273 169.45 52.1499 169.45Z" fill="#6C32AD"/>
<path d="M52.1499 169.9C51.4082 169.9 50.6832 169.68 50.0665 169.268C49.4498 168.856 48.9692 168.271 48.6854 167.585C48.4015 166.9 48.3273 166.146 48.472 165.419C48.6167 164.691 48.9738 164.023 49.4983 163.499C50.0227 162.974 50.6909 162.617 51.4183 162.472C52.1457 162.328 52.8997 162.402 53.585 162.686C54.2702 162.97 54.8559 163.45 55.2679 164.067C55.68 164.684 55.8999 165.409 55.8999 166.15C55.8983 167.144 55.5027 168.097 54.7998 168.8C54.0969 169.503 53.144 169.899 52.1499 169.9ZM52.1499 163.3C51.5862 163.3 51.0352 163.468 50.5665 163.781C50.0978 164.094 49.7326 164.539 49.5168 165.06C49.3011 165.581 49.2447 166.154 49.3547 166.706C49.4646 167.259 49.7361 167.767 50.1346 168.166C50.5332 168.564 51.0411 168.836 51.5939 168.946C52.1467 169.056 52.7198 168.999 53.2406 168.783C53.7613 168.568 54.2064 168.202 54.5196 167.734C54.8328 167.265 54.9999 166.714 54.9999 166.15C54.9991 165.395 54.6986 164.67 54.1643 164.136C53.63 163.602 52.9055 163.301 52.1499 163.3Z" fill="black"/>
<path d="M198.25 169.45C200.072 169.45 201.55 167.972 201.55 166.15C201.55 164.327 200.072 162.85 198.25 162.85C196.427 162.85 194.95 164.327 194.95 166.15C194.95 167.972 196.427 169.45 198.25 169.45Z" fill="#6C32AD"/>
<path d="M198.25 169.9C197.508 169.9 196.783 169.68 196.167 169.268C195.55 168.856 195.069 168.271 194.785 167.585C194.502 166.9 194.427 166.146 194.572 165.419C194.717 164.691 195.074 164.023 195.598 163.499C196.123 162.974 196.791 162.617 197.518 162.472C198.246 162.328 199 162.402 199.685 162.686C200.37 162.97 200.956 163.45 201.368 164.067C201.78 164.684 202 165.409 202 166.15C201.998 167.144 201.603 168.097 200.9 168.8C200.197 169.503 199.244 169.899 198.25 169.9ZM198.25 163.3C197.686 163.3 197.135 163.468 196.667 163.781C196.198 164.094 195.833 164.539 195.617 165.06C195.401 165.581 195.345 166.154 195.455 166.706C195.565 167.259 195.836 167.767 196.235 168.166C196.633 168.564 197.141 168.836 197.694 168.946C198.247 169.056 198.82 168.999 199.341 168.783C199.861 168.568 200.307 168.202 200.62 167.734C200.933 167.265 201.1 166.714 201.1 166.15C201.099 165.395 200.799 164.67 200.264 164.136C199.73 163.602 199.006 163.301 198.25 163.3Z" fill="black"/>
<path d="M151.006 203.801H94.582L51.853 166.49L52.447 165.812L94.918 202.901H150.694L197.971 165.797L198.529 166.505L151.006 203.801Z" fill="black"/>
<path d="M148.822 199.75H96.778C95.658 199.75 94.75 200.658 94.75 201.778V204.922C94.75 206.042 95.658 206.95 96.778 206.95H148.822C149.942 206.95 150.85 206.042 150.85 204.922V201.778C150.85 200.658 149.942 199.75 148.822 199.75Z" fill="#6C32AD"/>
<path d="M148.822 207.401H96.7781C96.1213 207.399 95.492 207.138 95.0276 206.673C94.5632 206.209 94.3016 205.579 94.3 204.923V201.779C94.3016 201.122 94.5632 200.493 95.0276 200.028C95.492 199.564 96.1213 199.302 96.7781 199.301H148.822C149.479 199.302 150.108 199.564 150.573 200.028C151.037 200.493 151.298 201.122 151.3 201.779V204.923C151.298 205.579 151.037 206.209 150.573 206.673C150.108 207.138 149.479 207.399 148.822 207.401ZM96.7781 200.201C96.3598 200.202 95.9589 200.368 95.6631 200.664C95.3674 200.96 95.2008 201.361 95.2 201.779V204.923C95.2008 205.341 95.3674 205.742 95.6631 206.038C95.9589 206.333 96.3598 206.5 96.7781 206.501H148.822C149.24 206.5 149.641 206.333 149.937 206.038C150.233 205.742 150.399 205.341 150.4 204.923V201.779C150.399 201.361 150.233 200.96 149.937 200.664C149.641 200.368 149.24 200.202 148.822 200.201H96.7781Z" fill="black"/>
<path d="M148.15 202.301H124.15C123.951 202.301 123.76 202.222 123.62 202.081C123.479 201.94 123.4 201.75 123.4 201.551C123.4 201.352 123.479 201.161 123.62 201.02C123.76 200.88 123.951 200.801 124.15 200.801H148.15C148.349 200.801 148.54 200.88 148.68 201.02C148.821 201.161 148.9 201.352 148.9 201.551C148.9 201.75 148.821 201.94 148.68 202.081C148.54 202.222 148.349 202.301 148.15 202.301Z" fill="white"/>
<path d="M173.503 13.4492H149.14C145.941 13.4492 143.347 16.0428 143.347 19.2422V43.6052C143.347 46.8046 145.941 49.3982 149.14 49.3982H173.503C176.702 49.3982 179.296 46.8046 179.296 43.6052V19.2422C179.296 16.0428 176.702 13.4492 173.503 13.4492Z" fill="#6C32AD"/>
<path d="M173.5 49.849H149.14C147.484 49.8466 145.897 49.1872 144.727 48.0155C143.557 46.8439 142.9 45.2558 142.9 43.6V19.243C142.901 17.5883 143.559 16.0017 144.729 14.8313C145.899 13.661 147.485 13.0024 149.14 13H173.5C175.155 13.0016 176.742 13.6598 177.913 14.8303C179.083 16.0007 179.741 17.5877 179.743 19.243V43.6C179.743 45.2563 179.085 46.8448 177.915 48.0166C176.744 49.1883 175.156 49.8474 173.5 49.849ZM149.14 13.9C147.724 13.9024 146.367 14.4662 145.366 15.4677C144.365 16.4693 143.801 17.827 143.8 19.243V43.6C143.801 45.0166 144.365 46.3747 145.367 47.3763C146.368 48.378 147.726 48.9414 149.143 48.943H173.5C174.917 48.9422 176.276 48.3791 177.278 47.3774C178.28 46.3756 178.844 45.0171 178.846 43.6V19.243C178.844 17.8259 178.28 16.4674 177.278 15.4656C176.276 14.4639 174.917 13.9008 173.5 13.9H149.14Z" fill="black"/>
<path d="M168.25 40.4493C168.124 40.4487 168 40.4216 167.885 40.37C167.77 40.3183 167.668 40.2431 167.584 40.1493L152.584 23.6493C152.449 23.4696 152.386 23.2458 152.408 23.0221C152.429 22.7983 152.534 22.5908 152.701 22.4403C152.868 22.2899 153.085 22.2073 153.31 22.209C153.535 22.2107 153.751 22.2964 153.916 22.4493L168.916 38.9493C169.031 39.0785 169.107 39.2383 169.134 39.4096C169.161 39.5808 169.138 39.7562 169.068 39.9146C168.997 40.073 168.883 40.2077 168.738 40.3026C168.593 40.3975 168.423 40.4484 168.25 40.4493Z" fill="white"/>
<path d="M155.05 40.4491C154.883 40.4492 154.719 40.4029 154.577 40.3154C154.435 40.2279 154.32 40.1026 154.245 39.9536C154.17 39.8045 154.138 39.6375 154.153 39.4712C154.167 39.305 154.227 39.146 154.327 39.0121L166.627 22.5121C166.769 22.3203 166.982 22.193 167.218 22.1581C167.455 22.1232 167.695 22.1836 167.887 22.3261C168.079 22.4685 168.206 22.6812 168.241 22.9175C168.276 23.1538 168.215 23.3943 168.073 23.586L155.773 40.0861C155.689 40.1988 155.58 40.2903 155.455 40.3534C155.329 40.4164 155.19 40.4492 155.05 40.4491Z" fill="white"/>
<path d="M184.45 20.95C184.291 20.95 184.138 20.8868 184.026 20.7743C183.913 20.6618 183.85 20.5092 183.85 20.35C183.949 15.733 182.908 12.484 180.751 10.69C178.243 8.59005 175.006 9.24404 174.973 9.25004C174.817 9.28306 174.654 9.25278 174.521 9.16586C174.387 9.07893 174.293 8.94249 174.26 8.78654C174.227 8.6306 174.258 8.46792 174.345 8.3343C174.431 8.20068 174.568 8.10706 174.724 8.07404C174.88 8.04404 178.543 7.30005 181.507 9.75704C183.967 11.794 185.158 15.367 185.05 20.374C185.044 20.529 184.978 20.6755 184.866 20.7829C184.754 20.8903 184.605 20.9502 184.45 20.95Z" fill="black"/>
<path d="M148.3 30.0998C130.939 29.9438 116.566 22.0598 107.563 15.4718C97.822 8.3438 92.092 1.1438 92.035 1.0718C91.9363 0.946881 91.8913 0.787888 91.9099 0.629795C91.9284 0.471702 92.009 0.327459 92.134 0.228799C92.2589 0.130138 92.4179 0.0851419 92.576 0.103708C92.7341 0.122274 92.8783 0.202882 92.977 0.327799C93.034 0.399799 98.677 7.4918 108.301 14.5238C117.148 20.9978 131.278 28.7468 148.3 28.8998C148.459 28.8998 148.612 28.963 148.724 29.0755C148.837 29.1881 148.9 29.3407 148.9 29.4998C148.9 29.6589 148.837 29.8115 148.724 29.9241C148.612 30.0366 148.459 30.0998 148.3 30.0998Z" fill="black"/>
<path d="M140.653 37.9323C129.958 37.9323 117.853 33.8823 117.208 33.6663C117.128 33.6453 117.054 33.6082 116.99 33.5572C116.925 33.5063 116.872 33.4426 116.833 33.3702C116.794 33.2977 116.77 33.2181 116.764 33.1361C116.757 33.0542 116.767 32.9718 116.793 32.8939C116.82 32.816 116.862 32.7444 116.917 32.6835C116.972 32.6226 117.039 32.5736 117.114 32.5397C117.189 32.5058 117.27 32.4877 117.352 32.4864C117.434 32.4851 117.516 32.5008 117.592 32.5323C117.787 32.5953 137.047 39.0303 148.132 35.8323C148.208 35.8103 148.287 35.8033 148.365 35.8119C148.443 35.8205 148.519 35.8444 148.588 35.8823C148.657 35.9201 148.718 35.9713 148.768 36.0327C148.817 36.0941 148.854 36.1647 148.876 36.2403C148.898 36.316 148.905 36.3952 148.896 36.4736C148.888 36.5519 148.864 36.6278 148.826 36.6968C148.788 36.7659 148.737 36.8269 148.676 36.8762C148.614 36.9255 148.544 36.9623 148.468 36.9843C145.919 37.6611 143.289 37.9801 140.653 37.9323Z" fill="black"/>
</svg>
