<svg width="220" height="82" viewBox="0 0 220 82" fill="none" xmlns="http://www.w3.org/2000/svg">
<rect x="0.994141" width="81.871" height="81.871" rx="14.5132" fill="#527D3C"/>
<path d="M24.3148 20.1747L23.0566 21.4329V24.5784H33.1223V21.4329L31.8641 20.1747H24.3148Z" fill="#527D3C"/>
<path d="M23.7647 19.6014C23.259 19.7665 22.392 20.6541 22.2372 21.1805C22.1546 21.4488 22.1134 22.3365 22.1134 23.5853C22.1134 25.5464 22.1134 25.567 22.3714 25.8147C22.5778 26.0315 22.7223 26.0727 23.1971 26.0727H23.7647V26.981V27.879L23.001 28.1163C21.845 28.4776 20.7406 29.1691 19.7292 30.1909C18.8003 31.1198 18.3048 31.8629 17.8507 33.0086C17.4069 34.113 17.2521 34.9799 17.1901 36.879C17.1282 38.7781 17.2108 39.3665 17.603 39.8619C17.7888 40.1096 17.7888 40.1302 17.6236 40.316C17.283 40.6876 17.1695 41.2656 17.1592 42.5454C17.1592 43.8355 17.2934 44.4961 17.6443 44.878C17.7991 45.0534 17.7991 45.0741 17.634 45.2599C17.283 45.6417 17.1695 46.2094 17.1592 47.4996C17.1592 48.7794 17.2934 49.4503 17.634 49.8218C17.7681 49.9767 17.7681 50.0283 17.5307 50.3689C17.3862 50.5856 17.2417 50.9468 17.2108 51.1842C17.1695 51.4216 17.1592 53.4962 17.1798 55.7978L17.2108 59.9779L17.4895 60.5146C17.8507 61.1958 18.3668 61.7119 19.048 62.0731L19.5847 62.3518H27.8932C34.1376 62.3518 36.2534 62.3208 36.4185 62.2279C36.5837 62.135 36.7179 62.135 37.0378 62.2486C37.3681 62.3724 39.3085 62.3931 48.5666 62.4034C60.7456 62.4034 60.0851 62.4343 60.7456 61.8047C61.1894 61.3919 61.561 60.5765 63.2434 56.3448L64.7812 52.495H65.4831C66.1023 52.495 66.2262 52.4641 66.4429 52.237C66.701 51.9893 66.701 51.9686 66.701 50.0179C66.701 48.0672 66.701 48.0466 66.4429 47.7989C66.2262 47.5718 66.1023 47.5408 65.4624 47.5408H64.7399L62.9956 44.0523C62.0358 42.1429 61.1069 40.3779 60.9211 40.1302C60.7353 39.8619 60.4153 39.6038 60.1676 39.48C59.7548 39.2942 59.3316 39.2839 49.1962 39.2839H38.6582L38.5963 37.1887C38.555 35.3928 38.5137 34.9696 38.2867 34.1026C37.5126 31.1714 35.2935 28.8079 32.7029 28.1679L32.0217 28.0028V27.0429V26.0727H32.5894C33.0642 26.0727 33.2087 26.0315 33.4151 25.8147C33.6731 25.567 33.6731 25.5464 33.6731 23.5853C33.6731 22.3365 33.6318 21.4488 33.5492 21.1805C33.3841 20.6128 32.5275 19.7562 31.9598 19.591C31.4024 19.4259 24.2911 19.4362 23.7647 19.6014ZM31.7637 21.3766C32.0114 21.614 32.0217 21.6759 32.0217 23.028V24.4214H27.8932H23.7647V23.028C23.7647 21.6759 23.7751 21.614 24.0228 21.3766L24.2705 21.1186H27.8932H31.516L31.7637 21.3766ZM30.3703 27.4558C30.3703 29.1588 30.3806 29.1691 31.6605 29.5303C32.7545 29.8503 33.7247 30.3457 34.4575 30.9444C36.3153 32.4822 36.9759 34.34 36.9759 37.9937V39.2839H28.2545C22.0927 39.2839 19.4711 39.2529 19.2957 39.1704C19.1512 39.1084 18.986 38.9433 18.9241 38.7988C18.7796 38.4892 18.7796 36.7139 18.9138 35.5786C19.306 32.4512 21.0709 30.4076 24.126 29.5303C25.4058 29.1691 25.4161 29.1588 25.4161 27.4558V26.0727H27.8932H30.3703V27.4558ZM35.5309 41.0178C35.5309 41.0591 35.18 41.8023 34.7568 42.6692L33.9931 44.2381H26.7682C21.6902 44.2381 19.4711 44.2071 19.2957 44.1245C18.9138 43.9491 18.8106 43.6085 18.8106 42.5867C18.8106 41.5855 18.9138 41.2243 19.2647 41.0591C19.5227 40.925 35.5309 40.894 35.5309 41.0178ZM59.6 41.1107C59.6929 41.2139 60.4669 42.7002 61.3236 44.4135L62.8821 47.5408H60.5082H58.124L57.8763 47.7989C57.7112 47.9537 57.6183 48.1704 57.6183 48.3665C57.6183 48.5626 57.7112 48.7794 57.8763 48.9342L58.124 49.1922H61.592H65.0496V50.0179V50.8436H48.5356H32.0217V50.0179V49.1922H41.672H51.3327L51.5804 48.9342C51.921 48.6039 51.921 48.1292 51.5804 47.7989L51.3327 47.5408H42.7558H34.1892L35.7477 44.4135C36.6043 42.7002 37.3784 41.2139 37.4713 41.1107C37.6158 40.9456 38.2764 40.9353 48.5356 40.9353C58.7949 40.9353 59.4555 40.9456 59.6 41.1107ZM32.7442 46.7152L32.3313 47.5408H31.5985C30.9689 47.5408 30.8451 47.5718 30.6283 47.7989C30.4116 48.0053 30.3703 48.1498 30.3703 48.6246V49.1922H24.9517C21.2051 49.1922 19.4608 49.1613 19.2957 49.0787C18.9138 48.9032 18.8106 48.5626 18.8106 47.5408C18.8106 46.5397 18.9138 46.1784 19.2647 46.0133C19.4092 45.9411 21.8347 45.8998 26.3244 45.8998L33.157 45.8895L32.7442 46.7152ZM30.3703 51.4113C30.3703 51.8861 30.4116 52.0306 30.6283 52.237C30.8451 52.4641 30.9689 52.495 31.5779 52.495H32.2797L33.8795 56.5306C34.7568 58.7394 35.5 60.5972 35.5103 60.6488C35.5309 60.7107 32.7236 60.752 27.8726 60.752H20.1936L19.7395 60.5146C19.3989 60.3495 19.2131 60.1637 19.048 59.8231C18.8106 59.3689 18.8106 59.307 18.8106 55.4675C18.8106 51.401 18.8312 51.1739 19.2647 50.9675C19.3989 50.8952 21.4012 50.854 24.931 50.854L30.3703 50.8436V51.4113ZM42.7558 53.8884C42.7558 55.2405 42.7661 55.3024 43.0138 55.5398L43.2615 55.7978H48.5356H53.8098L54.0575 55.5398C54.3052 55.3024 54.3155 55.2405 54.3155 53.8884V52.495H58.6504C61.0346 52.495 62.9853 52.5053 62.9853 52.526C62.9853 52.7427 59.827 60.3391 59.6619 60.5146L59.4451 60.752H48.5356H37.6261L37.4094 60.5146C37.2442 60.3391 34.086 52.7427 34.086 52.526C34.086 52.5053 36.0367 52.495 38.4209 52.495H42.7558V53.8884ZM52.6641 53.3207V54.1464H48.5356H44.4072V53.3207V52.495H48.5356H52.6641V53.3207Z" fill="white"/>
<path d="M53.7483 47.7972C53.5831 47.952 53.4902 48.1687 53.4902 48.3648C53.4902 48.561 53.5831 48.7777 53.7483 48.9325C53.965 49.1596 54.0889 49.1905 54.7288 49.1905C55.3687 49.1905 55.4925 49.1596 55.7093 48.9325C55.8744 48.7777 55.9673 48.561 55.9673 48.3648C55.9673 48.1687 55.8744 47.952 55.7093 47.7972C55.4925 47.5701 55.3687 47.5392 54.7288 47.5392C54.0889 47.5392 53.965 47.5701 53.7483 47.7972Z" fill="white"/>
<path d="M109.352 28.4648V43.7037C109.352 45.2276 109.727 46.4007 110.477 47.2231C111.227 48.0456 112.327 48.4568 113.778 48.4568C115.23 48.4568 116.342 48.0456 117.117 47.2231C117.891 46.4007 118.278 45.2276 118.278 43.7037V28.4648H124.482V43.6674C124.482 45.9411 123.998 47.8641 123.031 49.4364C122.063 51.0087 120.757 52.1939 119.112 52.9922C117.491 53.7904 115.677 54.1895 113.67 54.1895C111.662 54.1895 109.86 53.8025 108.263 53.0284C106.691 52.2302 105.445 51.045 104.526 49.4727C103.607 47.8762 103.148 45.9411 103.148 43.6674V28.4648H109.352ZM157.684 28.4648V53.9355H151.479V38.6603L145.783 53.9355H140.776L135.043 38.6241V53.9355H128.839V28.4648H136.168L143.316 46.0984L150.391 28.4648H157.684ZM176.913 53.9355L168.35 42.6878V53.9355H162.146V28.4648H168.35V39.64L176.84 28.4648H184.133L174.264 40.9462L184.496 53.9355H176.913ZM216.29 28.4648V53.9355H210.085V38.6603L204.389 53.9355H199.382L193.649 38.6241V53.9355H187.444V28.4648H194.774L201.921 46.0984L208.997 28.4648H216.29Z" fill="#527D3C"/>
</svg>
